# Blender v2.75 (sub 0) OBJ File: ''
# www.blender.org
mtllib dual.mtl
o Cube.001
v -0.236152 0.236152 1.999714
v 0.236152 0.236152 1.999714
v 0.500000 0.500000 -0.000286
v -0.500000 0.500000 -0.000286
v -0.236152 -0.236152 1.999714
v -0.500000 -0.500000 -0.000286
v 0.500000 -0.500000 -0.000286
v 0.236152 -0.236152 1.999714
v -0.470017 0.470017 3.440328
v 0.470017 0.470017 3.440328
v -0.470017 -0.470017 3.440328
v 0.470017 -0.470017 3.440327
vn 0.000000 0.991400 0.130800
vn 0.000000 -0.991400 0.130800
vn -0.689200 0.689200 -0.223800
vn -0.689200 -0.689200 -0.223800
vn 0.991400 -0.000000 0.130800
vn 0.000000 0.000000 -1.000000
vn -0.991400 -0.000000 0.130800
vn 0.000000 -0.000000 1.000000
vn 0.689200 -0.689200 -0.223800
vn 0.689200 0.689200 -0.223800
usemtl Material.001
s 1
f 1//1 2//1 3//1 4//1
f 5//2 6//2 7//2 8//2
f 1//3 5//4 11//4 9//3
f 2//5 8//5 7//5 3//5
f 3//6 7//6 6//6 4//6
f 5//7 1//7 4//7 6//7
f 9//8 11//8 12//8 10//8
f 8//9 2//10 10//10 12//9
f 5//4 8//9 12//9 11//4
f 2//10 1//3 9//3 10//10
