 
v 0.000000 -3.828054 0.000000
v 2.770008 -1.711981 2.012505
v -1.058028 -1.711982 3.256332
v -3.423912 -1.711966 0.000000
v -1.058028 -1.711982 -3.256332
v 2.770008 -1.711981 -2.012505
v 1.058028 1.711982 3.256332
v -2.770008 1.711981 2.012505
v -2.770008 1.711981 -2.012505
v 1.058028 1.711982 -3.256332
v 3.423912 1.711966 0.000000
v 0.000000 3.828054 0.000000
v -0.621889 -3.256351 1.914009
v 1.628158 -3.256351 1.182912
v 1.006276 -2.012552 3.096941
v 3.256326 -2.012546 0.000000
v 1.628158 -3.256351 -1.182912
v -2.012522 -3.256341 0.000000
v -2.634426 -2.012547 1.914015
v -0.621889 -3.256351 -1.914009
v -2.634426 -2.012547 -1.914015
v 1.006276 -2.012552 -3.096941
v 3.640701 0.000000 1.182917
v 3.640701 0.000000 -1.182917
v 0.000000 0.000000 3.828054
v 2.250075 0.000000 3.096960
v -3.640701 0.000000 1.182917
v -2.250075 0.000000 3.096960
v -2.250075 0.000000 -3.096960
v -3.640701 0.000000 -1.182917
v 2.250075 0.000000 -3.096960
v 0.000000 0.000000 -3.828054
v 2.634426 2.012547 1.914015
v -1.006276 2.012552 3.096941
v -3.256326 2.012546 0.000000
v -1.006276 2.012552 -3.096941
v 2.634426 2.012547 -1.914015
v 0.621889 3.256351 1.914009
v 2.012522 3.256341 0.000000
v -1.628158 3.256351 1.182912
v -1.628158 3.256351 -1.182912
v 0.621889 3.256351 -1.914009
vn 0.1024 -0.9435 0.3151
vn 0.7002 -0.6617 0.2680
vn -0.2680 -0.9435 0.1947
vn -0.2680 -0.9435 -0.1947
vn 0.1024 -0.9435 -0.3151
vn 0.8026 -0.1256 0.5831
vn -0.3066 -0.1256 0.9435
vn -0.9921 -0.1256 0.0000
vn -0.3066 -0.1256 -0.9435
vn 0.8026 -0.1256 -0.5831
vn 0.4089 0.6617 0.6284
vn -0.4713 0.6617 0.5831
vn -0.7002 0.6617 -0.2680
vn 0.0385 0.6617 -0.7488
vn 0.7240 0.6617 -0.1947
vn 0.2680 0.9435 -0.1947
vn 0.4089 0.6617 -0.6284
vn -0.1024 0.9435 -0.3151
vn -0.4713 0.6617 -0.5831
vn -0.3313 0.9435 0.0000
vn -0.7002 0.6617 0.2680
vn -0.1024 0.9435 0.3151
vn 0.0385 0.6617 0.7488
vn 0.2680 0.9435 0.1947
vn 0.7240 0.6617 0.1947
vn 0.8897 0.3304 -0.3151
vn 0.5746 0.3304 -0.7488
vn -0.0247 0.3304 -0.9435
vn -0.5346 0.3304 -0.7779
vn -0.9050 0.3304 -0.2680
vn -0.9050 0.3304 0.2680
vn -0.5346 0.3304 0.7779
vn -0.0247 0.3304 0.9435
vn 0.5746 0.3304 0.7488
vn 0.8897 0.3304 0.3151
vn 0.3035 -0.1876 -0.9342
vn -0.7947 -0.1876 -0.5773
vn -0.7947 -0.1876 0.5773
vn 0.3035 -0.1876 0.9342
vn 0.9822 -0.1876 0.0000
vn 0.4713 -0.6617 -0.5831
vn -0.0385 -0.6617 -0.7488
vn -0.4089 -0.6617 -0.6284
vn -0.7240 -0.6617 -0.1947
vn -0.7240 -0.6617 0.1947
vn -0.4089 -0.6617 0.6284
vn 0.7002 -0.6617 -0.2680
vn 0.3313 -0.9435 0.0000
vn -0.0385 -0.6617 0.7488
vn 0.4713 -0.6617 0.5831 
f 1//1 14//1 13//1
f 2//2 14//2 16//2
f 1//3 13//3 18//3
f 1//4 18//4 20//4
f 1//5 20//5 17//5
f 2//6 23//6 26//6
f 3//7 25//7 28//7
f 4//8 27//8 30//8
f 5//9 29//9 32//9
f 6//10 31//10 24//10
f 7//11 33//11 38//11
f 8//12 34//12 40//12
f 9//13 35//13 41//13
f 10//14 36//14 42//14
f 11//15 37//15 39//15
f 39//16 42//16 12//16
f 37//17 10//17 42//17
f 42//18 41//18 12//18
f 36//19 9//19 41//19
f 41//20 40//20 12//20
f 35//21 8//21 40//21
f 40//22 38//22 12//22
f 34//23 7//23 38//23
f 38//24 39//24 12//24
f 33//25 11//25 39//25
f 24//26 37//26 11//26
f 31//27 10//27 37//27
f 32//28 36//28 10//28
f 29//29 9//29 36//29
f 30//30 35//30 9//30
f 27//31 8//31 35//31
f 28//32 34//32 8//32
f 25//33 7//33 34//33
f 26//34 33//34 7//34
f 23//35 11//35 33//35
f 31//36 22//36 32//36
f 29//37 21//37 30//37
f 27//38 19//38 28//38
f 25//39 15//39 26//39
f 23//40 16//40 24//40
f 17//41 22//41 6//41
f 20//42 5//42 22//42
f 20//43 21//43 5//43
f 18//44 4//44 21//44
f 18//45 19//45 4//45
f 13//46 3//46 19//46
f 16//47 17//47 6//47
f 14//48 1//48 17//48
f 13//49 15//49 3//49
f 14//50 2//50 15//50
