 
v -1.000000 0.000000 1.000000
v 1.000000 0.000000 1.000000
v -1.000000 0.000000 -1.000000
v 1.000000 0.000000 -1.000000
v -0.835304 0.190926 -0.835304
v -0.835304 0.190926 0.835304
v 0.835304 0.190926 0.835304
v 0.835304 0.190926 -0.835304
v -0.554842 0.185485 -0.554842
v -0.554842 0.185485 0.554842
v 0.554842 0.185485 0.554842
v 0.554842 0.185485 -0.554842
v -0.383806 0.066056 -0.383806
v -0.383806 0.066056 0.383806
v 0.383806 0.066056 0.383806
v 0.383806 0.066056 -0.383806
v -0.234663 0.010648 -0.234663
v -0.234663 0.010648 0.234663
v 0.234663 0.010648 0.234663
v 0.234663 0.010648 -0.234663
v -0.131565 -0.005616 -0.131565
v -0.131565 -0.005616 0.131565
v 0.131565 -0.005616 0.131565
v 0.131565 -0.005616 -0.131565
v -1.000000 -1.687519 -1.000000
v -1.000000 -1.687519 1.000000
v 1.000000 -1.687519 1.000000
v 1.000000 -1.687519 -1.000000
v -0.987968 0.055996 -0.987968
v 0.987968 0.055996 -0.987968
v 0.987968 0.055996 0.987968
v -0.987968 0.055996 0.987968
v -0.964374 0.111532 -0.964374
v 0.964374 0.111532 0.964374
v 0.964374 0.111532 -0.964374
v -0.964374 0.111532 0.964374
v -0.907130 0.159724 -0.907130
v 0.907130 0.159724 0.907130
v 0.907130 0.159724 -0.907130
v -0.907130 0.159724 0.907130
v -0.696287 0.217986 -0.696287
v 0.696287 0.217986 -0.696287
v 0.696287 0.217986 0.696287
v -0.696287 0.217986 0.696287
vn -0.700300 0.138200 -0.700300
vn 0.700300 0.138200 -0.700300
vn 0.577300 -0.577300 -0.577300
vn -0.577300 -0.577300 -0.577300
vn 0.043600 0.998100 -0.043600
vn -0.043600 0.998100 -0.043600
vn 0.166500 0.971900 0.166500
vn -0.166500 0.971900 0.166500
vn 0.319400 0.892100 -0.319400
vn -0.319400 0.892100 -0.319400
vn -0.178900 0.967400 -0.178900
vn 0.178900 0.967400 -0.178900
vn -0.319400 0.892100 0.319400
vn 0.319400 0.892100 0.319400
vn 0.178900 0.967400 0.178900
vn -0.178900 0.967400 0.178900
vn -0.166500 0.971900 -0.166500
vn -0.277200 0.919900 0.277200
vn -0.277200 0.919900 -0.277200
vn -0.043600 0.998100 0.043600
vn 0.043600 0.998100 0.043600
vn 0.166500 0.971900 -0.166500
vn 0.277200 0.919900 0.277200
vn 0.153800 0.976000 0.153800
vn -0.153800 0.976000 0.153800
vn 0.277200 0.919900 -0.277200
vn -0.153800 0.976000 -0.153800
vn -0.058700 0.996500 0.058700
vn -0.058700 0.996500 -0.058700
vn 0.153800 0.976000 -0.153800
vn 0.058700 0.996500 -0.058700
vn 0.058700 0.996500 0.058700
vn -0.577300 -0.577300 0.577300
vn 0.577300 -0.577300 0.577300
vn 0.700300 0.138200 0.700300
vn -0.700300 0.138200 0.700300
vn -0.652100 0.386500 0.652100
vn -0.652100 0.386500 -0.652100
vn 0.652100 0.386500 -0.652100
vn 0.652100 0.386500 0.652100
vn -0.533800 0.655800 0.533800
vn -0.533800 0.655800 -0.533800
vn 0.533800 0.655800 -0.533800
vn 0.533800 0.655800 0.533800
 f 3//1 4//2 28//3 25//4
f 42//5 41//6 9//7 12//8
f 39//9 37//10 5//11 8//12
f 40//13 38//14 7//15 6//16
f 38//14 39//9 8//12 7//15
f 37//10 40//13 6//16 5//11
f 11//17 12//8 16//18 15//19
f 44//20 43//21 11//17 10//22
f 43//21 42//5 12//8 11//17
f 41//6 44//20 10//22 9//7
f 16//18 13//23 17//24 20//25
f 9//7 10//22 14//26 13//23
f 12//8 9//7 13//23 16//18
f 10//22 11//17 15//19 14//26
f 19//27 20//25 24//28 23//29
f 14//26 15//19 19//27 18//30
f 15//19 16//18 20//25 19//27
f 13//23 14//26 18//30 17//24
f 22//31 23//29 24//28 21//32
f 17//24 18//30 22//31 21//32
f 20//25 17//24 21//32 24//28
f 18//30 19//27 23//29 22//31
f 26//33 25//4 28//3 27//34
f 2//35 1//36 26//33 27//34
f 4//2 2//35 27//34 28//3
f 1//36 3//1 25//4 26//33
f 3//1 1//36 32//37 29//38
f 2//35 4//2 30//39 31//40
f 1//36 2//35 31//40 32//37
f 4//2 3//1 29//38 30//39
f 29//38 32//37 36//41 33//42
f 31//40 30//39 35//43 34//44
f 32//37 31//40 34//44 36//41
f 30//39 29//38 33//42 35//43
f 33//42 36//41 40//13 37//10
f 34//44 35//43 39//9 38//14
f 36//41 34//44 38//14 40//13
f 35//43 33//42 37//10 39//9
f 5//11 6//16 44//20 41//6
f 7//15 8//12 42//5 43//21
f 6//16 7//15 43//21 44//20
f 8//12 5//11 41//6 42//5
