 
v -9.776895 0.282961 9.776895
v 9.776895 0.282961 9.776895
v -9.776895 0.282961 -9.776895
v 9.776895 0.282961 -9.776895
v -1.798401 -0.215246 1.798401
v 1.798401 -0.215246 1.798401
v -1.798401 -0.215246 -1.798401
v 1.798401 -0.215246 -1.798401
v 0.000000 -0.215246 1.798401
v 0.000000 -0.215246 -1.798401
v 0.899201 -0.215246 1.798401
v -0.899201 -0.215246 -1.798401
v -0.899201 -0.215246 1.798401
v 0.899201 -0.215246 -1.798401
v 1.348801 -0.215246 1.798401
v -1.348801 -0.215246 -1.798401
v -0.449600 -0.215246 1.798401
v 0.449600 -0.215246 -1.798401
v 0.449600 -0.215246 1.798401
v -0.449600 -0.215246 -1.798401
v -1.348801 -0.215246 1.798401
v 1.348801 -0.215246 -1.798401
v -9.776895 -0.987024 9.776895
v 9.776895 -0.987024 9.776895
v -9.776895 -0.987024 -9.776895
v 9.776895 -0.987024 -9.776895
v -1.798401 -0.488817 1.798401
v 1.798401 -0.488817 1.798401
v -1.798401 -0.488817 -1.798401
v 1.798401 -0.488817 -1.798401
v 0.000000 -0.488817 1.798401
v 0.000000 -0.488817 -1.798401
v 0.899201 -0.488817 1.798401
v -0.899201 -0.488817 -1.798401
v -0.899201 -0.488817 1.798401
v 0.899201 -0.488817 -1.798401
v 1.348801 -0.488817 1.798401
v -1.348801 -0.488817 -1.798401
v -0.449600 -0.488817 1.798401
v 0.449600 -0.488817 -1.798401
v 0.449600 -0.488817 1.798401
v -0.449600 -0.488817 -1.798401
v -1.348801 -0.488817 1.798401
v 1.348801 -0.488817 -1.798401
vn 0.0000 0.9981 0.0623
vn 0.0000 0.9981 -0.0623
vn -0.0623 0.9981 0.0000
vn 0.0623 0.9981 0.0000
vn 0.0000 1.0000 0.0000
vn 0.0000 -0.9981 0.0623
vn 0.0000 -0.9981 -0.0623
vn -0.0623 -0.9981 0.0000
vn 0.0623 -0.9981 0.0000
vn 0.0000 -1.0000 0.0000
vn 1.0000 0.0000 0.0000
vn 0.0000 0.0000 1.0000
vn 0.0000 0.0000 -1.0000
vn -1.0000 0.0000 0.0000 
f 3//1 10//1 4//1
f 2//2 9//2 1//2
f 4//3 6//3 2//3
f 1//4 7//4 3//4
f 13//5 16//5 21//5
f 9//5 20//5 17//5
f 11//5 18//5 19//5
f 6//5 22//5 15//5
f 40//6 32//6 26//6
f 39//7 31//7 23//7
f 28//8 26//8 24//8
f 29//9 23//9 25//9
f 38//10 35//10 43//10
f 42//10 31//10 39//10
f 40//10 33//10 41//10
f 44//10 28//10 37//10
f 31//11 10//11 9//11
f 29//12 16//12 7//12
f 41//13 9//13 19//13
f 25//14 1//14 3//14
f 34//12 20//12 12//12
f 40//14 19//14 18//14
f 23//12 2//12 1//12
f 33//11 14//11 11//11
f 43//13 5//13 21//13
f 24//11 4//11 2//11
f 36//12 22//12 14//12
f 44//14 15//14 22//14
f 26//13 3//13 4//13
f 37//13 11//13 15//13
f 38//14 21//14 16//14
f 27//11 7//11 5//11
f 35//11 12//11 13//11
f 39//13 13//13 17//13
f 32//12 18//12 10//12
f 42//14 17//14 20//14
f 8//1 4//1 22//1
f 3//1 7//1 16//1
f 12//1 20//1 3//1
f 3//1 16//1 12//1
f 22//1 4//1 14//1
f 10//1 18//1 4//1
f 14//1 4//1 18//1
f 3//1 20//1 10//1
f 5//2 1//2 21//2
f 2//2 6//2 15//2
f 11//2 19//2 2//2
f 2//2 15//2 11//2
f 21//2 1//2 13//2
f 9//2 17//2 1//2
f 13//2 1//2 17//2
f 2//2 19//2 9//2
f 4//3 8//3 6//3
f 1//4 5//4 7//4
f 13//5 12//5 16//5
f 9//5 10//5 20//5
f 11//5 14//5 18//5
f 6//5 8//5 22//5
f 25//6 26//6 32//6
f 44//6 36//6 26//6
f 26//6 30//6 44//6
f 38//6 29//6 25//6
f 32//6 42//6 25//6
f 34//6 38//6 25//6
f 26//6 36//6 40//6
f 42//6 34//6 25//6
f 24//7 23//7 31//7
f 43//7 35//7 23//7
f 23//7 27//7 43//7
f 37//7 28//7 24//7
f 31//7 41//7 24//7
f 33//7 37//7 24//7
f 23//7 35//7 39//7
f 41//7 33//7 24//7
f 28//8 30//8 26//8
f 29//9 27//9 23//9
f 38//10 34//10 35//10
f 42//10 32//10 31//10
f 40//10 36//10 33//10
f 44//10 30//10 28//10
f 31//11 32//11 10//11
f 29//12 38//12 16//12
f 41//13 31//13 9//13
f 25//14 23//14 1//14
f 34//12 42//12 20//12
f 40//14 41//14 19//14
f 23//12 24//12 2//12
f 33//11 36//11 14//11
f 43//13 27//13 5//13
f 24//11 26//11 4//11
f 36//12 44//12 22//12
f 44//14 37//14 15//14
f 26//13 25//13 3//13
f 37//13 33//13 11//13
f 38//14 43//14 21//14
f 27//11 29//11 7//11
f 35//11 34//11 12//11
f 39//13 35//13 13//13
f 32//12 40//12 18//12
f 42//14 39//14 17//14
