 
v -2.783898 3.471423 0.429742
v -2.783898 3.471423 -0.429742
v -2.783898 -1.908188 -0.429742
v -2.783898 -1.908188 0.429742
v 1.988160 3.471423 0.429742
v -2.223212 -1.908188 0.429742
v -2.223212 3.011663 0.429742
v 1.427473 3.011663 0.429742
v 1.427473 -1.908188 0.429742
v 1.988160 -1.908188 0.429742
v 1.988160 3.471423 -0.429742
v 1.988160 -1.908188 -0.429742
v 1.427473 -1.908188 -0.429742
v 1.427473 3.011663 -0.429742
v -2.223212 3.011663 -0.429742
v -2.223212 -1.908188 -0.429742
vt 1.000000 0.000000
vt 1.000000 1.000000
vt 0.000000 1.000000
vt 0.500000 1.000000
vt 0.853553 0.853553
vt 0.500000 0.000000
vt 0.000000 0.000000
vt 0.146447 0.146447
vt 0.146447 0.853553
vt 1.000000 0.500000
vt 0.853553 0.146447
vt 0.000000 0.500000
vn -1.000000 0.000000 0.000000
vn 0.000000 0.000000 1.000000
vn 0.000000 1.000000 0.000000
vn 0.000000 0.000000 -1.000000
vn 0.000000 -1.000000 0.000000
vn 1.000000 0.000000 0.000000 
f 2/1/1 3/2/1 4/3/1
f 5/4/2 1/5/2 7/6/2
f 11/1/3 2/2/3 1/3/3
f 2/4/4 11/5/4 14/6/4
f 3/1/5 16/2/5 6/3/5
f 5/1/6 10/2/6 12/3/6
f 12/1/5 10/2/5 9/3/5
f 6/1/6 16/2/6 15/3/6
f 7/1/5 15/2/5 14/3/5
f 13/1/1 9/2/1 8/3/1
f 1/7/1 2/1/1 4/3/1
f 8/8/2 10/9/2 5/4/2
f 4/10/2 6/11/2 7/6/2
f 8/8/2 9/12/2 10/9/2
f 1/5/2 4/10/2 7/6/2
f 7/6/2 8/8/2 5/4/2
f 5/7/3 11/1/3 1/3/3
f 15/8/4 3/9/4 2/4/4
f 12/10/4 13/11/4 14/6/4
f 15/8/4 16/12/4 3/9/4
f 11/5/4 12/10/4 14/6/4
f 14/6/4 15/8/4 2/4/4
f 4/7/5 3/1/5 6/3/5
f 11/7/6 5/1/6 12/3/6
f 13/7/5 12/1/5 9/3/5
f 7/7/6 6/1/6 15/3/6
f 8/7/5 7/1/5 14/3/5
f 14/7/1 13/1/1 8/3/1
