# Blender v2.75 (sub 0) OBJ File: ''
# www.blender.org
mtllib ico_small.mtl
o Icosphere
v 0.000000 -1.000000 0.000000
v 0.723607 -0.447220 0.525725
v -0.276388 -0.447220 0.850649
v -0.894426 -0.447216 0.000000
v -0.276388 -0.447220 -0.850649
v 0.723607 -0.447220 -0.525725
v 0.276388 0.447220 0.850649
v -0.723607 0.447220 0.525725
v -0.723607 0.447220 -0.525725
v 0.276388 0.447220 -0.850649
v 0.894426 0.447216 0.000000
v 0.000000 1.000000 0.000000
v -0.162456 -0.850654 0.499995
v 0.425323 -0.850654 0.309011
v 0.262869 -0.525738 0.809012
v 0.850648 -0.525736 0.000000
v 0.425323 -0.850654 -0.309011
v -0.525730 -0.850652 0.000000
v -0.688189 -0.525736 0.499997
v -0.162456 -0.850654 -0.499995
v -0.688189 -0.525736 -0.499997
v 0.262869 -0.525738 -0.809012
v 0.951058 0.000000 0.309013
v 0.951058 0.000000 -0.309013
v 0.000000 0.000000 1.000000
v 0.587786 0.000000 0.809017
v -0.951058 0.000000 0.309013
v -0.587786 0.000000 0.809017
v -0.587786 0.000000 -0.809017
v -0.951058 0.000000 -0.309013
v 0.587786 0.000000 -0.809017
v 0.000000 0.000000 -1.000000
v 0.688189 0.525736 0.499997
v -0.262869 0.525738 0.809012
v -0.850648 0.525736 0.000000
v -0.262869 0.525738 -0.809012
v 0.688189 0.525736 -0.499997
v 0.162456 0.850654 0.499995
v 0.525730 0.850652 0.000000
v -0.425323 0.850654 0.309011
v -0.425323 0.850654 -0.309011
v 0.162456 0.850654 -0.499995
vt 0.405944 0.000093
vt 0.607277 0.140176
vt 0.376045 0.211068
vt 0.683476 0.345898
vt 0.869911 0.230273
vt 0.173796 0.078825
vt 0.000000 0.000000
vt 0.833902 0.505589
vt 0.358306 0.376330
vt 0.509949 0.348079
vt 0.435002 0.500000
vt 0.000093 0.251796
vt 0.202377 0.318774
vt 0.036102 0.494411
vt 0.500003 0.693289
vt 0.322884 0.912985
vt 0.270063 0.598282
vt 0.972969 0.456542
vt 0.729940 0.598284
vt 0.729937 0.314798
vt 0.604402 0.500379
vt 0.265602 0.499621
vt 0.500000 0.456540
vt 0.999904 0.144685
vt 0.511698 0.623670
vt 0.667627 0.681226
vt 0.493958 0.788932
vt 0.186528 0.654102
vt 0.360054 0.651921
vt 0.262727 0.859825
vt 0.499997 0.219791
vt 0.270060 0.314796
vt 0.322878 0.000097
vt 0.677116 0.000096
vt 0.000096 0.144683
vt 0.027031 0.456538
vt 0.000093 0.769727
vt 0.464059 0.999907
vt 0.696208 0.921175
vt 0.869910 0.748205
vt 0.000096 0.768395
vt 0.999905 0.768397
vt 0.677122 0.912983
vn 0.000000 -1.000000 0.000000
vn 0.425300 -0.850600 0.309000
vn -0.162500 -0.850600 0.500000
vn 0.723600 -0.447200 0.525700
vn 0.850600 -0.525700 0.000000
vn -0.525700 -0.850600 0.000000
vn -0.162500 -0.850600 -0.500000
vn 0.425300 -0.850600 -0.309000
vn 0.951000 0.000000 0.309000
vn -0.276400 -0.447200 0.850600
vn 0.262900 -0.525700 0.809000
vn 0.000000 0.000000 1.000000
vn -0.894400 -0.447200 0.000000
vn -0.688200 -0.525700 0.500000
vn -0.951000 0.000000 0.309000
vn -0.276400 -0.447200 -0.850600
vn -0.688200 -0.525700 -0.500000
vn -0.587800 0.000000 -0.809000
vn 0.723600 -0.447200 -0.525700
vn 0.262900 -0.525700 -0.809000
vn 0.587800 0.000000 -0.809000
vn 0.587800 0.000000 0.809000
vn -0.587800 0.000000 0.809000
vn -0.951000 0.000000 -0.309000
vn 0.000000 0.000000 -1.000000
vn 0.951000 0.000000 -0.309000
vn 0.276400 0.447200 0.850600
vn 0.688200 0.525700 0.500000
vn 0.162500 0.850600 0.500000
vn -0.723600 0.447200 0.525700
vn -0.262900 0.525700 0.809000
vn -0.425300 0.850600 0.309000
vn -0.723600 0.447200 -0.525700
vn -0.850600 0.525700 0.000000
vn -0.425300 0.850600 -0.309000
vn 0.276400 0.447200 -0.850600
vn -0.262900 0.525700 -0.809000
vn 0.162500 0.850600 -0.500000
vn 0.894400 0.447200 0.000000
vn 0.688200 0.525700 -0.500000
vn 0.525700 0.850600 0.000000
vn 0.000000 1.000000 0.000000
usemtl None
s 1
f 1/1/1 14/2/2 13/3/3
f 2/4/4 14/2/2 16/5/5
f 1/1/1 13/3/3 18/6/6
f 1/7/1 18/7/6 20/7/7
f 1/7/1 20/7/7 17/7/8
f 2/4/4 16/5/5 23/8/9
f 3/9/10 15/10/11 25/11/12
f 4/12/13 19/13/14 27/14/15
f 5/15/16 21/16/17 29/17/18
f 6/18/19 22/19/20 31/20/21
f 2/4/4 23/8/9 26/21/22
f 3/9/10 25/11/12 28/22/23
f 4/7/13 27/7/15 30/7/24
f 5/15/16 29/17/18 32/23/25
f 6/18/19 31/20/21 24/24/26
f 7/25/27 33/26/28 38/27/29
f 8/28/30 34/29/31 40/30/32
f 9/7/33 35/7/34 41/7/35
f 10/31/36 36/32/37 42/33/38
f 11/7/39 37/7/40 39/7/41
f 39/7/41 42/7/38 12/7/42
f 39/7/41 37/7/40 42/7/38
f 37/34/40 10/31/36 42/33/38
f 42/7/38 41/7/35 12/7/42
f 42/33/38 36/32/37 41/35/35
f 36/32/37 9/36/33 41/35/35
f 41/7/35 40/7/32 12/7/42
f 41/7/35 35/7/34 40/7/32
f 35/37/34 8/28/30 40/30/32
f 40/30/32 38/27/29 12/38/42
f 40/30/32 34/29/31 38/27/29
f 34/29/31 7/25/27 38/27/29
f 38/27/29 39/39/41 12/38/42
f 38/27/29 33/26/28 39/39/41
f 33/26/28 11/40/39 39/39/41
f 24/7/26 37/7/40 11/7/39
f 24/24/26 31/20/21 37/34/40
f 31/20/21 10/31/36 37/34/40
f 32/23/25 36/32/37 10/31/36
f 32/23/25 29/17/18 36/32/37
f 29/17/18 9/36/33 36/32/37
f 30/7/24 35/7/34 9/7/33
f 30/7/24 27/7/15 35/7/34
f 27/14/15 8/28/30 35/37/34
f 28/22/23 34/29/31 8/28/30
f 28/22/23 25/11/12 34/29/31
f 25/11/12 7/25/27 34/29/31
f 26/21/22 33/26/28 7/25/27
f 26/21/22 23/8/9 33/26/28
f 23/8/9 11/40/39 33/26/28
f 31/20/21 32/23/25 10/31/36
f 31/20/21 22/19/20 32/23/25
f 22/19/20 5/15/16 32/23/25
f 29/17/18 30/41/24 9/36/33
f 29/17/18 21/16/17 30/41/24
f 21/7/17 4/7/13 30/7/24
f 27/14/15 28/22/23 8/28/30
f 27/14/15 19/13/14 28/22/23
f 19/13/14 3/9/10 28/22/23
f 25/11/12 26/21/22 7/25/27
f 25/11/12 15/10/11 26/21/22
f 15/10/11 2/4/4 26/21/22
f 23/7/9 24/7/26 11/7/39
f 23/7/9 16/7/5 24/7/26
f 16/7/5 6/7/19 24/7/26
f 17/42/8 22/19/20 6/18/19
f 17/42/8 20/43/7 22/19/20
f 20/43/7 5/15/16 22/19/20
f 20/43/7 21/16/17 5/15/16
f 20/7/7 18/7/6 21/7/17
f 18/7/6 4/7/13 21/7/17
f 18/6/6 19/13/14 4/12/13
f 18/6/6 13/3/3 19/13/14
f 13/3/3 3/9/10 19/13/14
f 16/7/5 17/7/8 6/7/19
f 16/7/5 14/7/2 17/7/8
f 14/7/2 1/7/1 17/7/8
f 13/3/3 15/10/11 3/9/10
f 13/3/3 14/2/2 15/10/11
f 14/2/2 2/4/4 15/10/11
