
v -0.000000 8.432923 -0.012592
v -0.000000 8.859497 -0.000000
v 0.008904 8.432923 -0.008904
v 0.012592 8.432923 -0.000000
v 0.008904 8.432923 0.008904
v -0.000000 8.432923 0.012592
v -0.008904 8.432923 0.008904
v -0.012592 8.432923 -0.000000
v -0.008904 8.432923 -0.008904
v 1.360891 1.117872 -0.889398
v -0.147354 2.431339 -0.889398
v 1.360892 1.117872 1.110602
v -0.147354 2.431339 1.110602
v 1.673593 1.476945 0.110602
v 0.165347 2.790412 0.110602
v -0.009057 2.126857 1.619627
v 0.858696 3.440323 0.386011
v -1.644886 2.126857 0.468949
v -0.777133 3.440323 -0.764667
v -1.006881 2.485930 1.300051
v -0.139128 3.799396 0.066435
v -1.634323 1.597736 0.139365
v -0.346519 2.911202 0.924454
v -0.593261 1.597736 -1.568319
v 0.694543 2.911202 -0.783231
v -1.380790 1.956809 -0.877248
v -0.092986 3.270274 -0.092159
v 0.448057 3.187473 -1.281258
v -0.585787 4.303936 -0.523127
v 1.453371 3.187473 0.089665
v 0.419527 4.303936 0.847795
v 1.165059 3.492689 -0.752978
v 0.131215 4.609152 0.005152
v 0.552871 4.245577 1.066153
v 0.694024 5.229085 -0.054349
v -0.932964 4.245576 0.878977
v -0.791810 5.229085 -0.241524
v -0.219311 4.514447 1.204876
v -0.078158 5.497954 0.084374
v -1.053128 5.438484 -0.523785
v -0.533846 6.428123 0.487029
v 0.287256 5.438483 -1.212376
v 0.806538 6.428123 -0.201562
v -0.490597 5.709030 -1.077650
v 0.028685 6.698668 -0.066836
v -0.732193 7.183381 -0.364728
v -0.364121 7.884848 0.351749
v 0.217886 7.183381 -0.852808
v 0.585959 7.884848 -0.136332
v -0.333466 7.375146 -0.757313
v 0.034607 8.076613 -0.040837
v -1.156527 1.847568 -1.282980
v -1.082964 3.161034 0.223470
v 0.841092 1.847568 -1.380528
v 0.914655 3.161034 0.125922
v -0.172969 2.206641 -1.644083
v -0.099406 3.520107 -0.137633
v 1.153400 2.035447 -1.089830
v -0.232323 3.245945 -0.980765
v 1.298025 2.035447 0.747698
v -0.087698 3.245945 0.856764
v 1.513011 2.366371 -0.193678
v 0.127289 3.576869 -0.084613
v -0.155348 2.766141 1.412688
v 0.732733 3.881144 0.490403
v -1.378337 2.766141 0.235055
v -0.490257 3.881144 -0.687230
v -0.950966 3.070959 1.015086
v -0.062886 4.185960 0.092802
v -0.153379 0.797157 1.663188
v 0.946048 2.177509 0.521417
v -1.667417 0.797157 0.205300
v -0.567990 2.177509 -0.936471
v -1.138339 1.174514 1.170965
v -0.038913 2.554866 0.029195
v 0.856093 1.528636 1.278153
v 0.965415 2.665823 -0.023086
v -0.869408 1.528636 1.133187
v -0.760086 2.665823 -0.168052
v -0.029323 1.839518 1.475453
v 0.079999 2.976704 0.174214
v -1.445579 2.916549 -0.486774
v -0.758572 4.053735 0.623720
v 0.026985 2.916549 -1.397775
v 0.713992 4.053735 -0.287281
v -0.851732 3.227430 -1.172511
v -0.164726 4.364616 -0.062017
v -1.090378 4.045254 -0.546356
v -0.634880 4.976167 0.420702
v 0.191983 4.045254 -1.150365
v 0.647481 4.976167 -0.183308
v -0.543635 4.299745 -1.048859
v -0.088137 5.230658 -0.081801
v 1.011840 4.882966 -0.263174
v 0.199737 5.668681 -0.656257
v 0.490594 4.882966 0.813709
v -0.321508 5.668681 0.420627
v 0.919588 5.097763 0.356765
v 0.107486 5.883479 -0.036318
v -1.433379 0.645730 0.141175
v -0.320640 1.787933 0.835485
v -0.512694 0.645730 -1.334366
v 0.600045 1.787933 -0.640056
v -1.203738 0.957984 -0.740545
v -0.091000 2.100186 -0.046235
v 0.599058 5.281106 0.954026
v 0.756629 6.174135 -0.059255
v -0.744598 5.281106 0.745081
v -0.587027 6.174135 -0.268201
v -0.105439 5.525240 1.059635
v 0.052132 6.418269 0.046354
v 0.688236 6.004918 0.808314
v 0.639673 6.897946 -0.215995
v -0.670043 6.004918 0.872711
v -0.718606 6.897946 -0.151598
v 0.019165 6.249053 1.052881
v -0.029398 7.142081 0.028571
v 0.661383 6.678323 -0.464582
v -0.124271 7.363596 -0.508729
v 0.602842 6.678323 0.577231
v -0.182813 7.363596 0.533084
v 0.795000 6.865662 0.065478
v 0.009346 7.550934 0.021330
v -0.955045 4.707501 -0.503881
v -0.516887 5.587488 0.406665
v 0.252380 4.707501 -1.084897
v 0.690537 5.587488 -0.174352
v -0.442175 4.948071 -0.983171
v -0.004017 5.828058 -0.072625
v 0.700421 3.445252 0.812685
v 0.628540 4.325240 -0.195238
v -0.636129 3.445252 0.908002
v -0.708011 4.325240 -0.099920
v 0.047049 3.685822 1.069315
v -0.024832 4.565809 0.061392
v -0.723750 3.821078 0.784510
v 0.273495 4.699234 0.611882
v -0.997332 3.874115 -0.526135
v -0.000088 4.752271 -0.698764
v -1.063408 4.088215 0.181270
v -0.066163 4.966369 0.008642
v 1.008553 2.875859 -0.261139
v 0.081361 3.754015 -0.666864
v 0.514287 2.928897 0.983183
v -0.412904 3.807052 0.577459
v 0.959389 3.142996 0.429403
v 0.032197 4.021151 0.023678
v 1.193598 1.920510 0.477417
v 0.537411 2.976400 -0.547425
v -0.131547 1.984282 1.391585
v -0.787735 3.040172 0.366744
v 0.683316 2.241714 1.135074
v 0.027128 3.297603 0.110232
v 1.292062 0.725843 0.476210
v 0.567132 1.892347 -0.655994
v -0.171905 0.796295 1.486146
v -0.896834 1.962799 0.353943
v 0.728323 1.080696 1.202762
v 0.003393 2.247198 0.070559
v -0.780959 1.026808 -1.201982
v -0.859888 2.193311 0.140098
v 0.997043 1.097260 -1.158650
v 0.918114 2.263763 0.183429
v 0.102156 1.381661 -1.458472
v 0.023227 2.548163 -0.116393
v 0.917856 3.778085 -1.018129
v -0.364021 4.920288 -0.740559
v 1.285925 3.778085 0.681697
v 0.004048 4.920288 0.959266
v 1.367660 4.090338 -0.225764
v 0.085782 5.232541 0.051806
v 0.693706 7.117306 -0.000711
v 0.144314 7.712684 -0.407614
v 0.154134 7.117306 0.727808
v -0.395258 7.712684 0.320903
v 0.537824 7.280069 0.447911
v -0.011568 7.875447 0.041007
v -0.528786 6.665235 0.606601
v 0.242075 7.350509 0.448564
v -0.738350 6.665235 -0.415595
v 0.032511 7.350509 -0.573632
v -0.793389 6.852575 0.128268
v -0.022528 7.537847 -0.029769
v 0.317603 5.214927 -0.918632
v -0.497108 6.037296 -0.441153
v 0.950761 5.214927 0.161711
v 0.136051 6.037296 0.639190
v 0.803094 5.439746 -0.477455
v -0.011617 6.262114 0.000024
v 0.000000 -0.323418 -0.211715
v 0.149705 -0.323418 -0.149705
v 0.211715 -0.323418 0.000000
v 0.149705 -0.323418 0.149705
v -0.000000 -0.323418 0.211715
v -0.149705 -0.323418 0.149705
v -0.211715 -0.323418 -0.000000
v -0.149705 -0.323418 -0.149705
vt 0.612059 3.410616
vt 0.483430 3.409790
vt 0.483430 -2.413657
vt 0.612059 -2.412779
vt 0.749707 0.999483
vt 0.853489 0.000000
vt 0.853490 0.999484
vt 1.000000 0.000000
vt 1.000000 1.000000
vt 0.853490 0.001030
vt 0.603379 0.000000
vt 0.603379 0.999486
vt 0.499597 0.000003
vt 0.353269 0.002485
vt 0.000000 0.993492
vt 0.353269 0.000000
vt 0.103160 0.997001
vt 0.249489 0.999481
vt 0.603379 0.997001
vt 0.353269 0.999486
vt 0.740684 3.411551
vt 0.740684 -2.411790
vt 0.869308 3.412590
vt 0.869308 -2.410687
vt 0.997929 3.413735
vt 0.997929 -2.409473
vt 0.126897 3.410616
vt -0.002150 3.409789
vt -0.002150 -2.413657
vt 0.126897 -2.412780
vt 0.255943 3.411550
vt 0.255943 -2.411790
vt 0.384985 3.412590
vt 0.384985 -2.410688
vt 0.514026 3.413735
vt 0.514026 -2.409473
vt 0.000100 0.500000
vt 0.999900 0.500000
vt 0.999900 0.999900
vt 0.000100 0.999900
vt 0.000100 0.000100
vt 0.999900 0.000100
vn -0.706800 0.026100 -0.706800
vn 0.000000 0.026100 -0.999600
vn 0.000000 0.022700 -0.999700
vn -0.706900 0.022700 -0.706900
vn 0.000000 1.000000 0.000000
vn 0.706800 0.026100 -0.706800
vn 0.999600 0.026100 0.000000
vn 0.706800 0.026100 0.706800
vn 0.000000 0.026100 0.999600
vn -0.706800 0.026100 0.706800
vn -0.999600 0.026100 0.000000
vn -0.999700 0.022700 0.000000
vn -0.706900 0.022700 0.706900
vn 0.000000 0.022700 0.999700
vn 0.706900 0.022700 0.706900
vn 0.999700 0.022700 0.000000
vn 0.706900 0.022700 -0.706900
vn 0.592900 0.680900 0.429900
vn 0.592900 0.680900 -0.429900
vn -0.692800 0.680900 0.237600
vn 0.010500 0.680900 0.732300
vn -0.282500 0.680900 -0.675700
vn -0.730100 0.680900 0.058400
vn 0.732400 0.680900 -0.004000
vn 0.223900 0.680900 -0.697300
vn -0.500600 0.680900 0.534600
vn 0.352400 0.680900 0.642000
vn 0.111400 0.680900 -0.723900
vn -0.653300 0.680900 -0.331000
vn -0.275500 0.680900 -0.678600
vn -0.730600 0.680900 0.050800
vn 0.670500 0.680900 0.294700
vn 0.488500 0.680900 -0.545600
vn 0.220600 0.680900 0.698400
vn 0.732400 0.680900 0.007400
vn 0.400500 0.680900 -0.613200
vn -0.458300 0.680900 -0.571300
vn 0.624900 0.680900 0.382100
vn 0.557400 0.680900 -0.475100
vn -0.721000 0.680900 0.128900
vn -0.101600 0.680900 0.725300
vn -0.478000 0.680900 0.554900
vn 0.378800 0.680900 0.626900
vn 0.053600 0.680900 -0.730400
vn -0.677600 0.680900 -0.278100
vn 0.136300 0.680900 -0.719600
vn -0.641600 0.680900 -0.353200
vn 0.346400 0.680900 0.645300
vn 0.721000 0.680900 -0.128600
vn -0.515900 0.680900 0.519800
vn 0.333700 0.680900 0.652000
vn -0.401300 0.680900 0.612600
vn 0.457500 0.680900 0.571900
vn 0.567900 0.680900 0.462500
vn 0.616100 0.680900 -0.396000
vn 0.130300 0.680900 -0.720700
vn -0.644500 0.680900 -0.347900
vn -0.386600 0.680900 0.622000
vn 0.471000 0.680900 0.560900
vn -0.661900 0.698000 -0.273100
vn -0.486400 0.664000 0.567900
vn 0.401700 0.698000 0.592800
vn 0.718900 0.664000 -0.205700
vn 0.004900 0.698000 0.716100
vn 0.712100 0.664000 0.228200
vn 0.416900 0.698000 -0.582200
vn -0.442000 0.664000 -0.603100
vn -0.667200 0.680900 -0.302100
vn -0.494500 0.680900 0.540200
vn 0.728900 0.680900 0.071100
vn 0.294200 0.680900 -0.670700 
f 9/1/1 1/2/2 190/3/3 197/4/4
f 1/5/2 2/6/5 3/7/6
f 3/8/6 2/9/5 4/10/7
f 4/11/7 2/12/5 5/13/8
f 5/13/8 2/12/5 6/14/9
f 6/15/9 2/16/5 7/17/10
f 7/17/10 2/16/5 8/18/11
f 9/19/1 2/6/5 1/5/2
f 8/18/11 2/16/5 9/20/1
f 8/21/11 9/1/1 197/4/4 196/22/12
f 7/23/10 8/21/11 196/22/12 195/24/13
f 6/25/9 7/23/10 195/24/13 194/26/14
f 5/27/8 6/28/9 194/29/14 193/30/15
f 4/31/7 5/27/8 193/30/15 192/32/16
f 3/33/6 4/31/7 192/32/16 191/34/17
f 1/35/2 3/33/6 191/34/17 190/36/3
 
f 14/37/18 15/38/18 13/39/18 12/40/18
f 10/41/19 11/42/19 15/38/19 14/37/19
f 20/37/20 21/38/20 19/39/20 18/40/20
f 16/41/21 17/42/21 21/38/21 20/37/21
f 26/37/22 27/38/22 25/39/22 24/40/22
f 22/41/23 23/42/23 27/38/23 26/37/23
f 32/37/24 33/38/24 31/39/24 30/40/24
f 28/41/25 29/42/25 33/38/25 32/37/25
f 38/37/26 39/38/26 37/39/26 36/40/26
f 34/41/27 35/42/27 39/38/27 38/37/27
f 44/37/28 45/38/28 43/39/28 42/40/28
f 40/41/29 41/42/29 45/38/29 44/37/29
f 50/37/28 51/38/28 49/39/28 48/40/28
f 46/41/29 47/42/29 51/38/29 50/37/29
f 104/37/30 105/38/30 103/39/30 102/40/30
f 100/41/31 101/42/31 105/38/31 104/37/31
f 170/37/32 171/38/32 169/39/32 168/40/32
f 166/41/33 167/42/33 171/38/33 170/37/33
f 176/37/34 177/38/34 175/39/34 174/40/34
f 172/41/35 173/42/35 177/38/35 176/37/35

f 56/37/36 57/38/36 55/39/36 54/40/36
f 52/41/37 53/42/37 57/38/37 56/37/37
f 62/37/38 63/38/38 61/39/38 60/40/38
f 58/41/39 59/42/39 63/38/39 62/37/39
f 68/37/40 69/38/40 67/39/40 66/40/40
f 64/41/41 65/42/41 69/38/41 68/37/41
f 74/37/40 75/38/40 73/39/40 72/40/40
f 70/41/41 71/42/41 75/38/41 74/37/41
f 80/37/42 81/38/42 79/39/42 78/40/42
f 76/41/43 77/42/43 81/38/43 80/37/43
f 86/37/44 87/38/44 85/39/44 84/40/44
f 82/41/45 83/42/45 87/38/45 86/37/45
f 92/37/46 93/38/46 91/39/46 90/40/46
f 88/41/47 89/42/47 93/38/47 92/37/47
f 98/37/48 99/38/48 97/39/48 96/40/48
f 94/41/49 95/42/49 99/38/49 98/37/49
f 110/37/50 111/38/50 109/39/50 108/40/50
f 106/41/51 107/42/51 111/38/51 110/37/51

f 116/37/52 117/38/52 115/39/52 114/40/52
f 112/41/53 113/42/53 117/38/53 116/37/53
f 122/37/54 123/38/54 121/39/54 120/40/54
f 118/41/55 119/42/55 123/38/55 122/37/55
f 128/37/56 129/38/56 127/39/56 126/40/56
f 124/41/57 125/42/57 129/38/57 128/37/57
f 134/37/58 135/38/58 133/39/58 132/40/58
f 130/41/59 131/42/59 135/38/59 134/37/59
f 140/37/60 141/38/60 139/39/60 138/40/60
f 136/41/61 137/42/61 141/38/61 140/37/61
f 146/37/62 147/38/62 145/39/62 144/40/62
f 142/41/63 143/42/63 147/38/63 146/37/63
f 152/37/64 153/38/64 151/39/64 150/40/64
f 148/41/65 149/42/65 153/38/65 152/37/65
f 158/37/64 159/38/64 157/39/64 156/40/64
f 154/41/65 155/42/65 159/38/65 158/37/65
f 164/37/66 165/38/66 163/39/66 162/40/66
f 160/41/67 161/42/67 165/38/67 164/37/67
f 182/37/68 183/38/68 181/39/68 180/40/68
f 178/41/69 179/42/69 183/38/69 182/37/69
f 188/37/70 189/38/70 187/39/70 186/40/70
f 184/41/71 185/42/71 189/38/71 188/37/71
