# Blender v2.75 (sub 0) OBJ File: ''
# www.blender.org
mtllib pole.mtl
o Cylinder
v 0.000000 -0.458696 -0.458696
v 0.000000 3.621304 -0.458696
v 0.397243 -0.458696 -0.229348
v 0.397243 3.621304 -0.229348
v 0.397243 -0.458696 0.229348
v 0.397243 3.621304 0.229348
v -0.000000 -0.458696 0.458696
v -0.000000 3.621304 0.458696
v -0.397243 -0.458696 0.229348
v -0.397243 3.621304 0.229348
v -0.397243 -0.458696 -0.229348
v -0.397243 3.621304 -0.229348
v -0.000000 4.678998 -0.258157
v 0.223570 4.678998 -0.129078
v 0.223570 4.678998 0.129078
v -0.000000 4.678998 0.258157
v -0.223570 4.678998 0.129078
v -0.223570 4.678998 -0.129078
v -0.000000 12.698656 -0.137282
v 0.118889 12.698656 -0.068641
v 0.118889 12.698656 0.068641
v -0.000000 12.698656 0.137282
v -0.118889 12.698656 0.068641
v -0.118889 12.698656 -0.068641
v -0.091417 11.630692 -0.013830
v -0.091417 11.813526 -0.013830
v -0.091417 12.512853 -2.338052
v -0.091417 12.685141 -2.276854
v 0.091417 11.630692 -0.013830
v 0.091417 11.813526 -0.013830
v 0.091417 12.512853 -2.338052
v 0.091417 12.685141 -2.276854
v -0.565505 12.579965 -2.725423
v -0.565505 13.090730 -2.543996
v 0.565505 12.579965 -2.725423
v 0.565505 13.090730 -2.543996
v -0.565505 13.040549 -4.076872
v -0.565505 13.551313 -3.895445
v 0.565505 13.040549 -4.076872
v 0.565505 13.551313 -3.895445
vn 0.500000 0.000000 -0.866000
vn 1.000000 0.000000 0.000000
vn 0.500000 0.000000 0.866000
vn -0.500000 0.000000 0.866000
vn -0.493400 0.162000 0.854600
vn -0.500000 0.000000 -0.866000
vn -1.000000 0.000000 0.000000
vn 0.000000 -1.000000 0.000000
vn -0.999900 0.013100 0.000000
vn 0.986800 0.162000 0.000000
vn -0.986800 0.162000 0.000000
vn 0.493400 0.162000 -0.854600
vn 0.493400 0.162000 0.854600
vn -0.493400 0.162000 -0.854600
vn 0.000000 1.000000 0.000000
vn 0.500000 0.013100 0.866000
vn 0.500000 0.013100 -0.866000
vn -0.500000 0.013100 -0.866000
vn -0.500000 0.013100 0.866000
vn 0.999900 0.013100 0.000000
vn 0.000000 0.550100 0.835100
vn 0.000000 0.000000 1.000000
vn 0.000000 -0.934900 -0.354900
vn 0.000000 0.933200 0.359400
vn 0.000000 -0.946500 -0.322600
vn -0.632800 -0.259200 0.729600
vn 0.632800 -0.259200 0.729600
vn 0.000000 -0.985300 -0.170700
vn 0.000000 0.334700 -0.942300
vn 0.000000 0.946500 0.322600
usemtl None
s off
f 2//1 4//1 3//1
f 4//2 6//2 5//2
f 6//3 8//3 7//3
f 8//4 10//4 9//4
f 8//5 16//5 17//5
f 12//6 2//6 1//6
f 10//7 12//7 11//7
f 11//8 5//8 9//8
f 17//9 23//9 24//9
f 4//10 14//10 15//10
f 10//11 17//11 18//11
f 2//12 13//12 14//12
f 6//13 15//13 16//13
f 12//14 18//14 13//14
f 20//15 24//15 22//15
f 15//16 21//16 22//16
f 13//17 19//17 20//17
f 18//18 24//18 19//18
f 16//19 22//19 23//19
f 14//20 20//20 21//20
f 26//7 28//7 27//7
f 32//21 36//21 34//21
f 30//2 29//2 31//2
f 26//22 25//22 29//22
f 27//23 31//23 29//23
f 32//24 28//24 26//24
f 33//25 37//25 39//25
f 28//26 34//26 33//26
f 32//27 31//27 35//27
f 31//28 27//28 33//28
f 40//29 39//29 37//29
f 36//30 40//30 38//30
f 35//2 39//2 40//2
f 33//7 34//7 38//7
f 1//1 2//1 3//1
f 3//2 4//2 5//2
f 5//3 6//3 7//3
f 7//4 8//4 9//4
f 10//5 8//5 17//5
f 11//6 12//6 1//6
f 9//7 10//7 11//7
f 5//8 11//8 1//8
f 5//8 7//8 9//8
f 1//8 3//8 5//8
f 18//9 17//9 24//9
f 6//10 4//10 15//10
f 12//11 10//11 18//11
f 4//12 2//12 14//12
f 8//13 6//13 16//13
f 2//14 12//14 13//14
f 22//15 21//15 20//15
f 24//15 23//15 22//15
f 20//15 19//15 24//15
f 16//16 15//16 22//16
f 14//17 13//17 20//17
f 13//18 18//18 19//18
f 17//19 16//19 23//19
f 15//20 14//20 21//20
f 25//7 26//7 27//7
f 28//21 32//21 34//21
f 32//2 30//2 31//2
f 30//22 26//22 29//22
f 25//23 27//23 29//23
f 30//24 32//24 26//24
f 35//25 33//25 39//25
f 27//26 28//26 33//26
f 36//27 32//27 35//27
f 35//28 31//28 33//28
f 38//29 40//29 37//29
f 34//30 36//30 38//30
f 36//2 35//2 40//2
f 37//7 33//7 38//7
